<svg width="114" height="181" viewBox="0 0 114 181" fill="none" xmlns="http://www.w3.org/2000/svg">
<g filter="url(#filter0_di_20_3)">
<path d="M28.7042 167.581C23.4634 157.474 3.24933 67.6325 28.7042 58.6484C54.1591 49.6644 60.8975 77.3654 89.7215 58.6484C118.545 39.9315 112.182 67.6326 89.7215 84.1035C67.261 100.574 50.0415 84.1035 50.0415 84.1035L50.0415 102.446C50.0415 102.446 67.6354 88.9699 76.994 102.446C86.3526 115.922 76.994 120.789 76.994 120.789C76.994 120.789 62.0203 110.307 50.0415 120.789C38.0628 131.27 66.6681 159.999 50.0415 167.581C42.4599 171.038 33.945 177.688 28.7042 167.581Z" fill="#F1592A"/>
</g>
<g filter="url(#filter1_di_20_3)">
<ellipse cx="24.0322" cy="20.6819" rx="19.2813" ry="17.3132" transform="rotate(7.5 24.0322 20.6819)" fill="#EFEFEF"/>
<ellipse cx="15.511" cy="37.4956" rx="13.0279" ry="11.6981" transform="rotate(7.5 15.511 37.4956)" fill="#EFEFEF"/>
<ellipse cx="43.6651" cy="23.2654" rx="13.0279" ry="11.6981" transform="rotate(7.5 43.6651 23.2654)" fill="#EFEFEF"/>
<path d="M18.6042 33.0006L44.2638 21.748C44.2638 21.748 52.9818 46.6698 53.4099 51.5362C54.8534 57.5256 30.9496 49.2901 23.4628 57.8999C18.2221 62.7663 18.6042 33.0006 18.6042 33.0006Z" fill="#EFEFEF"/>
</g>
<defs>
<filter id="filter0_di_20_3" x="12.1338" y="51.395" width="100.893" height="129.549" filterUnits="userSpaceOnUse" color-interpolation-filters="sRGB">
<feFlood flood-opacity="0" result="BackgroundImageFix"/>
<feColorMatrix in="SourceAlpha" type="matrix" values="0 0 0 0 0 0 0 0 0 0 0 0 0 0 0 0 0 0 127 0" result="hardAlpha"/>
<feOffset dy="4"/>
<feGaussianBlur stdDeviation="2"/>
<feComposite in2="hardAlpha" operator="out"/>
<feColorMatrix type="matrix" values="0 0 0 0 0 0 0 0 0 0 0 0 0 0 0 0 0 0 0.25 0"/>
<feBlend mode="normal" in2="BackgroundImageFix" result="effect1_dropShadow_20_3"/>
<feBlend mode="normal" in="SourceGraphic" in2="effect1_dropShadow_20_3" result="shape"/>
<feColorMatrix in="SourceAlpha" type="matrix" values="0 0 0 0 0 0 0 0 0 0 0 0 0 0 0 0 0 0 127 0" result="hardAlpha"/>
<feOffset dx="1" dy="-1"/>
<feGaussianBlur stdDeviation="2.5"/>
<feComposite in2="hardAlpha" operator="arithmetic" k2="-1" k3="1"/>
<feColorMatrix type="matrix" values="0 0 0 0 0 0 0 0 0 0 0 0 0 0 0 0 0 0 0.25 0"/>
<feBlend mode="normal" in2="shape" result="effect2_innerShadow_20_3"/>
</filter>
<filter id="filter1_di_20_3" x="0.503296" y="0.331024" width="62.1694" height="63.1066" filterUnits="userSpaceOnUse" color-interpolation-filters="sRGB">
<feFlood flood-opacity="0" result="BackgroundImageFix"/>
<feColorMatrix in="SourceAlpha" type="matrix" values="0 0 0 0 0 0 0 0 0 0 0 0 0 0 0 0 0 0 127 0" result="hardAlpha"/>
<feOffset dx="2" dy="1"/>
<feGaussianBlur stdDeviation="2"/>
<feComposite in2="hardAlpha" operator="out"/>
<feColorMatrix type="matrix" values="0 0 0 0 0 0 0 0 0 0 0 0 0 0 0 0 0 0 0.25 0"/>
<feBlend mode="normal" in2="BackgroundImageFix" result="effect1_dropShadow_20_3"/>
<feBlend mode="normal" in="SourceGraphic" in2="effect1_dropShadow_20_3" result="shape"/>
<feColorMatrix in="SourceAlpha" type="matrix" values="0 0 0 0 0 0 0 0 0 0 0 0 0 0 0 0 0 0 127 0" result="hardAlpha"/>
<feOffset/>
<feGaussianBlur stdDeviation="2.5"/>
<feComposite in2="hardAlpha" operator="arithmetic" k2="-1" k3="1"/>
<feColorMatrix type="matrix" values="0 0 0 0 0 0 0 0 0 0 0 0 0 0 0 0 0 0 0.25 0"/>
<feBlend mode="normal" in2="shape" result="effect2_innerShadow_20_3"/>
</filter>
</defs>
</svg>
