<svg width="30" height="30" viewBox="0 0 30 30" fill="none" xmlns="http://www.w3.org/2000/svg">
<g filter="url(#filter0_di_49_3)">
<path d="M17.6694 15.4962L27.3351 5.85298C27.7584 5.42971 27.9962 4.85563 27.9962 4.25703C27.9962 3.65843 27.7584 3.08434 27.3351 2.66107C26.9118 2.23779 26.3377 2 25.7391 2C25.1405 2 24.5665 2.23779 24.1432 2.66107L14.5 12.3267L4.85682 2.66107C4.43354 2.23779 3.85946 2 3.26086 2C2.66226 2 2.08818 2.23779 1.6649 2.66107C1.24163 3.08434 1.00384 3.65843 1.00384 4.25703C1.00384 4.85563 1.24163 5.42971 1.6649 5.85298L11.3306 15.4962L1.6649 25.1393C1.45422 25.3483 1.28699 25.5969 1.17287 25.8708C1.05875 26.1448 1 26.4386 1 26.7353C1 27.032 1.05875 27.3258 1.17287 27.5998C1.28699 27.8737 1.45422 28.1223 1.6649 28.3313C1.87387 28.5419 2.12248 28.7092 2.3964 28.8233C2.67032 28.9374 2.96412 28.9962 3.26086 28.9962C3.5576 28.9962 3.85141 28.9374 4.12532 28.8233C4.39924 28.7092 4.64785 28.5419 4.85682 28.3313L14.5 18.6656L24.1432 28.3313C24.3521 28.5419 24.6008 28.7092 24.8747 28.8233C25.1486 28.9374 25.4424 28.9962 25.7391 28.9962C26.0359 28.9962 26.3297 28.9374 26.6036 28.8233C26.8775 28.7092 27.1261 28.5419 27.3351 28.3313C27.5458 28.1223 27.713 27.8737 27.8271 27.5998C27.9412 27.3258 28 27.032 28 26.7353C28 26.4386 27.9412 26.1448 27.8271 25.8708C27.713 25.5969 27.5458 25.3483 27.3351 25.1393L17.6694 15.4962Z" fill="white"/>
</g>
<defs>
<filter id="filter0_di_49_3" x="-1" y="-1" width="33" height="32.9962" filterUnits="userSpaceOnUse" color-interpolation-filters="sRGB">
<feFlood flood-opacity="0" result="BackgroundImageFix"/>
<feColorMatrix in="SourceAlpha" type="matrix" values="0 0 0 0 0 0 0 0 0 0 0 0 0 0 0 0 0 0 127 0" result="hardAlpha"/>
<feOffset dx="1"/>
<feGaussianBlur stdDeviation="1.5"/>
<feComposite in2="hardAlpha" operator="out"/>
<feColorMatrix type="matrix" values="0 0 0 0 0 0 0 0 0 0 0 0 0 0 0 0 0 0 0.25 0"/>
<feBlend mode="normal" in2="BackgroundImageFix" result="effect1_dropShadow_49_3"/>
<feBlend mode="normal" in="SourceGraphic" in2="effect1_dropShadow_49_3" result="shape"/>
<feColorMatrix in="SourceAlpha" type="matrix" values="0 0 0 0 0 0 0 0 0 0 0 0 0 0 0 0 0 0 127 0" result="hardAlpha"/>
<feOffset dy="-2"/>
<feGaussianBlur stdDeviation="1.5"/>
<feComposite in2="hardAlpha" operator="arithmetic" k2="-1" k3="1"/>
<feColorMatrix type="matrix" values="0 0 0 0 0 0 0 0 0 0 0 0 0 0 0 0 0 0 0.25 0"/>
<feBlend mode="normal" in2="shape" result="effect2_innerShadow_49_3"/>
</filter>
</defs>
</svg>
