<svg width="43" height="41" viewBox="0 0 43 41" fill="none" xmlns="http://www.w3.org/2000/svg">
<path d="M8.25 10.3333H36.9792C37.5613 10.3334 38.137 10.4554 38.669 10.6915C39.2011 10.9276 39.6778 11.2726 40.0684 11.7042C40.459 12.1358 40.7549 12.6445 40.9369 13.1975C41.1188 13.7504 41.1829 14.3354 41.125 14.9146L39.875 27.4146C39.7722 28.4427 39.291 29.396 38.5249 30.0893C37.7588 30.7827 36.7624 31.1666 35.7292 31.1667H15.8333C14.8697 31.1671 13.9358 30.8334 13.1905 30.2226C12.4452 29.6118 11.9347 28.7616 11.7458 27.8167L8.25 10.3333Z" stroke="white" stroke-width="2.5" stroke-linejoin="round"/>
<path d="M8.25 10.3333L6.5625 3.57708C6.44964 3.12657 6.18948 2.72668 5.82335 2.44095C5.45721 2.15521 5.0061 2.00001 4.54167 2H2" stroke="white" stroke-width="2.5" stroke-linecap="round" stroke-linejoin="round"/>
<path d="M14.5 39.5H18.6667" stroke="white" stroke-width="2.5" stroke-linecap="round" stroke-linejoin="round"/>
<path d="M31.1667 39.5H35.3334" stroke="white" stroke-width="2.5" stroke-linecap="round" stroke-linejoin="round"/>
</svg>
